<?xml version="1.0" encoding="utf-8"?>
<svg viewBox="0 0 980 551" xmlns="http://www.w3.org/2000/svg">
  <defs>
    <filter x="-2.2%" y="-21.7%" width="104.4%" height="143.4%" filterUnits="objectBoundingBox" id="filter-1">
      <feOffset dx="0" dy="2" in="SourceAlpha" result="shadowOffsetOuter1"/>
      <feGaussianBlur stdDeviation="5" in="shadowOffsetOuter1" result="shadowBlurOuter1"/>
      <feColorMatrix values="0 0 0 0 0.203921569   0 0 0 0 0.28627451   0 0 0 0 0.368627451  0 0 0 0.75 0" type="matrix" in="shadowBlurOuter1" result="shadowMatrixOuter1"/>
      <feMerge>
        <feMergeNode in="shadowMatrixOuter1"/>
        <feMergeNode in="SourceGraphic"/>
      </feMerge>
    </filter>
  </defs>
  <g id="Default" stroke="none" stroke-width="1" fill="none" fill-rule="evenodd">
    <g id="Bottom-Lines" filter="url(#filter-1)" transform="translate(-50.687746, 539.157340)">
      <rect id="Rectangle" fill="#41B883" x="14.8835175" y="0.49653278" width="1032" height="99"/>
      <rect id="Rectangle" fill="#34495E" x="0.133501729" y="6.12434689" width="1032" height="99"/>
    </g>
    <g id="Top-Right-Vues" transform="translate(901.360567, -22.868745)" fill-rule="nonzero" stroke="#FFFFFF" stroke-linejoin="round" stroke-width="2">
      <g id="Group" transform="translate(42.659454, 32.756006)">
        <g id="Vue-Logo-rounded" transform="translate(27.500000, 24.000000) rotate(21.000000) translate(-27.500000, -24.000000) ">
          <g id="vue-logo" transform="translate(0.995475, 1.000000)">
            <path d="M20.9614545,-1 L26.5043367,8.62013792 L32.0474023,-1 L54.7393536,-1 L26.5045249,48.0030335 L-1.73030383,-1 L20.9614545,-1 Z" id="Path" fill="#41B883"/>
            <path d="M20.9304082,-1 L26.3957066,8.46673578 L32.0776444,-1 L44.0425478,-1 L26.3791115,29.4952489 L8.7177346,-1 L20.9304082,-1 Z" id="Path" fill="#34495E"/>
          </g>
        </g>
      </g>
      <g id="Group" transform="translate(32.000000, 10.000000)">
        <g id="Vue-Logo-rounded" transform="translate(27.500000, 24.000000) rotate(26.000000) translate(-27.500000, -24.000000) ">
          <g id="vue-logo" transform="translate(0.995475, 1.000000)">
            <path d="M20.9614545,-1 L26.5043367,8.62013792 L32.0474023,-1 L54.7393536,-1 L26.5045249,48.0030335 L-1.73030383,-1 L20.9614545,-1 Z" id="Path" fill="#41B883"/>
            <path d="M20.9304082,-1 L26.3957066,8.46673578 L32.0776444,-1 L44.0425478,-1 L26.3791115,29.4952489 L8.7177346,-1 L20.9304082,-1 Z" id="Path" fill="#34495E"/>
          </g>
        </g>
      </g>
      <g id="Group" transform="translate(8.000000, 11.000000)">
        <g id="Vue-Logo-rounded" transform="translate(27.000000, 24.000000) rotate(-22.000000) translate(-27.000000, -24.000000) ">
          <g id="vue-logo" transform="translate(0.977376, 1.000000)">
            <path d="M20.5961269,-1 L26.02244,8.59222651 L31.4489326,-1 L53.7598823,-1 L26.0226244,48.0309449 L-1.71463348,-1 L20.5961269,-1 Z" id="Path" fill="#41B883"/>
            <path d="M20.5656375,-1 L25.9161674,8.43956769 L31.4787874,-1 L43.2575434,-1 L25.8994901,29.5229801 L8.54346062,-1 L20.5656375,-1 Z" id="Path" fill="#34495E"/>
          </g>
        </g>
      </g>
    </g>
  </g>
  <rect width="44.478" height="44.478" rx="10.567" fill="#3178c6" style="" x="918.302" y="9.161" ry="10.567"/>
  <path d="M 945.84 44.517 L 945.84 48.861 C 946.544 49.226 947.404 49.495 948.36 49.677 C 949.315 49.86 950.357 49.946 951.4 49.946 C 952.442 49.946 953.398 49.851 954.354 49.652 C 955.309 49.451 956.091 49.121 956.786 48.696 C 957.489 48.235 958.089 47.654 958.437 46.871 C 958.784 46.089 959.054 45.221 959.054 44.092 C 959.054 43.301 958.931 42.615 958.697 42.007 C 958.462 41.398 958.124 40.877 957.654 40.443 C 957.212 39.983 956.699 39.574 956.091 39.227 C 955.483 38.88 954.788 38.514 954.006 38.184 C 953.433 37.95 952.964 37.724 952.442 37.498 C 951.991 37.272 951.6 37.047 951.313 36.821 C 950.992 36.585 950.748 36.343 950.575 36.091 C 950.401 35.83 950.314 35.543 950.314 35.222 C 950.314 34.926 950.391 34.658 950.549 34.415 C 950.706 34.171 950.922 33.971 951.2 33.798 C 951.478 33.624 951.826 33.494 952.242 33.398 C 952.651 33.302 953.103 33.258 953.632 33.258 C 953.997 33.258 954.379 33.286 954.762 33.34 C 955.161 33.395 955.569 33.48 955.978 33.592 C 956.387 33.706 956.786 33.844 957.194 34.018 C 957.576 34.192 957.932 34.391 958.236 34.618 L 958.236 30.534 C 957.576 30.283 956.847 30.092 956.066 29.97 C 955.283 29.849 954.414 29.788 953.372 29.788 C 952.329 29.788 951.374 29.901 950.419 30.118 C 949.463 30.335 948.681 30.683 947.985 31.16 C 947.282 31.629 946.77 32.202 946.335 32.985 C 945.927 33.714 945.727 34.548 945.727 35.59 C 945.727 36.893 946.101 38.023 946.856 38.892 C 947.604 39.847 948.768 40.542 950.245 41.237 C 950.844 41.48 951.374 41.723 951.895 41.958 C 952.416 42.193 952.851 42.436 953.198 42.688 C 953.572 42.94 953.867 43.218 954.067 43.514 C 954.284 43.808 954.397 44.156 954.397 44.555 C 954.397 44.834 954.33 45.094 954.197 45.337 C 954.065 45.58 953.858 45.789 953.581 45.963 C 953.303 46.137 952.964 46.276 952.538 46.38 C 952.13 46.475 951.669 46.527 951.061 46.527 C 950.106 46.527 949.15 46.363 948.281 46.032 C 947.325 45.703 946.457 45.206 945.675 44.555 L 945.84 44.517 Z M 938.543 33.832 L 944.103 33.832 L 944.103 30.271 L 928.553 30.271 L 928.553 33.832 L 934.113 33.832 L 934.113 49.729 L 938.543 49.729 L 938.543 33.832 Z" clip-rule="evenodd" fill="#fff" fill-rule="evenodd" style="fill: rgb(255, 255, 255);"/>
</svg>